<svg xmlns="http://www.w3.org/2000/svg" width="40" height="40" viewbox="0 0 40 40">
  <g fill="none" fill-rule="evenodd">
    <path fill="#FFF" fill-rule="nonzero" d="M5 4h30v33H5z"/>
    <path fill="#AC2474" d="M3.794.484c-.01.01-.173.038-.362.064-.19.026-.364.06-.386.076a1.924 1.924 0 0 1-.264.106 2.205 2.205 0 0 0-.375.17.79.79 0 0 1-.185.095c-.106 0-.846.692-1.087 1.017C1 2.196.67 2.852.67 2.94a.176.176 0 0 1-.038.108C.49 3.195.487 3.368.487 20c0 16.489.003 16.764.137 16.954.016.023.064.141.106.264.041.123.118.292.17.375a.87.87 0 0 1 .095.18c0 .153 1.074 1.232 1.227 1.232.018 0 .102.042.185.093.256.158.702.308 1.106.373.6.096 32.376.094 32.99-.003.226-.035.428-.08.45-.101a.187.187 0 0 1 .111-.037c.041 0 .106-.017.145-.037.038-.02.143-.073.233-.117.673-.327 1.267-.87 1.584-1.45.062-.112.124-.221.14-.244.015-.022.06-.132.1-.243.038-.112.087-.24.107-.285.162-.354.16-.094.16-16.95 0-16.946.002-16.781-.166-16.956a.187.187 0 0 1-.037-.112.368.368 0 0 0-.037-.145c-.02-.038-.073-.143-.117-.233-.2-.41-.355-.634-.682-.98-.159-.17-.668-.583-.717-.583A.802.802 0 0 1 37.593.9a2.226 2.226 0 0 0-.354-.165 4.574 4.574 0 0 1-.285-.11c-.282-.13-.529-.133-16.876-.146C11.131.472 3.803.474 3.794.484m6.724 3.595c.773.065 1.74.397 2.303.791.076.054.101.055.173.007.202-.132.707-.39.764-.39.034 0 .069-.014.076-.031.018-.042.591-.229.968-.315.607-.14 2.035-.083 2.497.099.045.017.182.064.305.103.326.104.95.414 1.088.54.03.028.068.051.085.051s.065.032.109.071c.043.04.143.12.22.178.327.245.975.97.975 1.088 0 .024.016.044.036.044.02 0 .046.032.059.07.012.04.075.163.14.275.13.227.31.711.377 1.017.103.466.12 1.237.11 5.188l-.011 4.15-2 .01-1.998.011-.011-4.294c-.013-4.738.007-4.4-.274-4.683a.952.952 0 0 0-1.293-.034c-.247.225-.23-.093-.252 4.645l-.02 4.345-2.02.01-2.02.011-.001-4.274c-.001-4.782.02-4.443-.289-4.725-.349-.32-.849-.333-1.24-.034-.298.226-.275-.126-.298 4.687l-.02 4.325-2.021.01-2.02.011.013-4.437c.016-4.714.02-4.823.23-5.33.018-.045.065-.173.105-.284.04-.112.114-.271.166-.355a.904.904 0 0 0 .095-.177c0-.033.326-.489.447-.626.05-.055.129-.147.177-.203.281-.326.993-.847 1.448-1.061.335-.158.526-.236.635-.26.063-.014.152-.04.197-.06.381-.159 1.219-.228 1.99-.164m19.147.069c.19.034.382.077.426.095.045.018.2.065.346.105.145.04.282.084.304.099.022.014.13.06.24.1.11.04.308.135.44.21.133.075.256.136.273.136.182 0 1.95 1.544 1.95 1.704 0 .02.026.062.056.092.177.177.72 1.178.843 1.555.029.089.065.18.081.203a.79.79 0 0 1 .058.203c.016.09.043.18.06.203.035.047.069.215.123.609.022.156.058.386.08.51.05.288.051.84 0 1.132-.02.124-.056.354-.078.51-.056.397-.086.556-.123.65-.018.045-.065.19-.106.325a1.45 1.45 0 0 1-.107.282.17.17 0 0 0-.034.096c0 .455-1.202 2.073-1.99 2.678l-.266.207c-.106.087-.579.371-.618.371-.023 0-.049.014-.056.03-.021.048-.262.173-.331.173-.034 0-.068.016-.075.034-.008.019-.15.084-.318.145-.168.06-.336.127-.374.148a1.01 1.01 0 0 1-.244.064.77.77 0 0 0-.215.056.832.832 0 0 1-.223.059c-.1.015-.274.044-.386.063-.272.046-1.608.044-1.888-.003-.123-.02-.302-.05-.397-.063-.096-.015-.184-.042-.195-.061-.012-.02-.066-.036-.12-.036-.104 0-.44-.098-.557-.163a.313.313 0 0 0-.122-.04c-.079.001-1.127-.532-1.127-.573 0-.02-.02-.036-.043-.036-.147 0-1.214-.949-1.598-1.421a6.801 6.801 0 0 1-.878-1.49 33.29 33.29 0 0 0-.163-.398c-.065-.151-.202-.68-.29-1.117-.109-.538-.04-2.345.095-2.496.019-.02.034-.08.034-.132 0-.254.67-1.84.776-1.84.02 0 .036-.017.036-.04 0-.063.393-.6.666-.91.2-.227.56-.549 1.024-.914.282-.223 1.318-.775 1.453-.775a.128.128 0 0 0 .079-.027c.042-.041.442-.176.524-.176.04 0 .105-.016.143-.037.364-.191 1.985-.248 2.812-.1m-1.55 3.65c-.011.011-.129.04-.26.063a2.229 2.229 0 0 0-.455.142 2.18 2.18 0 0 1-.235.1c-.3 0-1.317 1.2-1.317 1.556a.151.151 0 0 1-.037.09c-.13.135-.128 1.31.002 1.631.37.914.835 1.41 1.618 1.73.55.223 1.435.255 1.889.069.044-.019.168-.067.274-.108.106-.041.193-.089.193-.106 0-.016.021-.03.047-.03s.15-.077.274-.171c1.634-1.234 1.42-3.754-.396-4.674-.12-.06-.243-.11-.274-.11-.032 0-.057-.014-.057-.032 0-.083-1.192-.224-1.266-.15M10.579 19.004c.609.08 1.049.184 1.155.273a.192.192 0 0 0 .106.033c.064 0 .695.307.955.465.07.042.151.064.183.05.08-.038.216-.124.24-.153.032-.037.724-.362.772-.362a.307.307 0 0 0 .112-.04c.123-.068.455-.163.572-.163.061 0 .13-.016.15-.036.146-.133 1.922-.133 2.067 0 .022.02.086.036.143.036.113 0 .55.129.596.174a.129.129 0 0 0 .08.029c.061 0 .575.242.826.389.775.455 1.465 1.206 1.826 1.986.46.995.453.91.44 6.095l-.01 4.18-2 .01-2 .01v-4.216c0-4.567.004-4.473-.218-4.73-.236-.271-.823-.413-1.092-.262-.565.315-.517-.129-.518 4.828 0 2.353-.015 4.301-.033 4.33-.026.04-.457.048-2.02.04l-1.987-.01-.02-4.305c-.022-4.672-.009-4.407-.244-4.657-.389-.414-1.107-.363-1.442.102l-.122.169-.02 4.345-.02 4.345h-4.02l.001-4.406c.001-3.297.014-4.477.051-4.69.06-.341.143-.655.182-.695a.13.13 0 0 0 .03-.08c0-.258.604-1.194 1.064-1.649.478-.472 1.497-1.13 1.752-1.13.034 0 .072-.015.084-.035.012-.02.064-.045.114-.057l.376-.09c.71-.172 1.25-.207 1.889-.123m18.599.002c.634.084 1.05.17 1.279.265.045.018.127.046.183.062.09.025.266.101.771.333.825.379 2.477 1.873 2.477 2.24 0 .024.016.043.035.043.053 0 .574 1.005.574 1.107 0 .03.015.072.033.093.034.041.13.33.206.617l.088.325c.114.415.188 1.545.126 1.92a27.75 27.75 0 0 0-.084.547c-.056.4-.09.563-.125.61a.743.743 0 0 0-.06.213c-.015.094-.045.182-.065.195-.02.012-.037.058-.037.102a.376.376 0 0 1-.038.15c-.02.039-.116.235-.21.436-.153.323-.534.98-.6 1.035a2.997 2.997 0 0 0-.166.204c-.233.301-.596.68-.956.993-.332.29-1.197.805-1.685 1.005-.056.023-.13.055-.164.072a1.175 1.175 0 0 1-.202.062 1.187 1.187 0 0 0-.201.06c-.14.069-.383.13-.602.151a.933.933 0 0 0-.274.056c-.23.18-2.31.031-2.923-.209a1.602 1.602 0 0 0-.197-.057c-.253-.055-1.19-.515-1.533-.753a6.675 6.675 0 0 1-2.24-2.599c-.202-.424-.436-1.082-.436-1.23 0-.051-.015-.111-.034-.132-.135-.15-.204-1.958-.095-2.496.1-.493.251-1.06.299-1.114a.16.16 0 0 0 .033-.09c0-.047.091-.263.279-.664.08-.169.452-.783.493-.812a.16.16 0 0 0 .045-.065c.117-.325 1.338-1.452 1.964-1.812.347-.2 1.132-.56 1.221-.56a.343.343 0 0 0 .13-.036c.455-.237 1.864-.377 2.69-.267m-1.279 3.755c-.013.023-.067.041-.119.041-.278 0-.92.364-1.278.724-.308.31-.46.555-.688 1.115-.13.32-.132 1.496-.002 1.631.02.021.037.063.037.093 0 .523 1.02 1.523 1.772 1.736l.363.105c.162.049.808.049.968 0l.369-.113c1.576-.481 2.342-2.3 1.615-3.829-.196-.41-.547-.838-.823-1.001-.067-.04-.122-.087-.122-.104 0-.018-.019-.032-.042-.032a.725.725 0 0 1-.192-.092 2.118 2.118 0 0 0-.396-.167 2.91 2.91 0 0 1-.314-.11c-.097-.051-1.116-.048-1.148.003M12.113 33.635c.006.228.02.416.032.416.011 0 .07-.032.129-.071.353-.232.938-.006 1.133.436.39.883-.39 1.9-1.137 1.484-.177-.099-.18-.1-.201-.019-.02.074-.05.081-.279.07l-.257-.012-.01-1.372-.011-1.373.295.012.295.012.011.417m2.689-.15v.285l-.274-.012-.274-.012-.012-.274-.012-.274h.572v.286m1.482 1.095v1.36l-.257.012c-.396.019-.372.105-.372-1.354 0-1.522-.029-1.406.34-1.39l.29.011v1.36m-9.916-.652c.086.02.2.077.252.126l.095.09.11-.086c.227-.18.669-.207.899-.056.22.143.255.303.255 1.144 0 .868.004.856-.315.856-.284 0-.29-.014-.303-.824-.013-.782-.018-.798-.242-.8-.233-.001-.277.137-.277.855 0 .752-.008.769-.34.769-.31 0-.31 0-.31-.782 0-.769-.02-.842-.218-.842-.277 0-.321.11-.342.862-.02.745-.027.762-.29.762-.34 0-.33.032-.318-1.076l.01-.975.259-.012c.208-.01.268.001.31.06.044.06.062.063.118.017.129-.107.403-.144.647-.088m3.876.072c.166.079.45.397.48.537.012.057.039.147.06.198.144.356-.282 1.186-.61 1.186-.043 0-.09.018-.104.04-.03.05-.616.055-.646.006-.012-.02-.075-.046-.139-.059-.48-.096-.736-.944-.451-1.497.23-.45.91-.647 1.41-.41m8.171 0c.31.202.447.46.447.84v.268h-1.26l.024.111c.068.302.383.41.563.193.132-.158.238-.177.511-.092.192.06.194.073.05.3-.305.483-1.148.52-1.536.07-.183-.214-.295-.875-.186-1.1l.112-.23c.2-.412.895-.608 1.275-.36m4.582.038l.135.104.095-.09c.183-.172.626-.198.878-.051.219.127.246.237.27 1.062.025.901.015.938-.258.938-.346 0-.341.012-.341-.787 0-.782-.025-.859-.27-.83-.24.028-.299.207-.299.91 0 .707 0 .707-.337.707-.258 0-.263-.017-.279-.824-.014-.778-.02-.8-.237-.798-.26.001-.32.187-.323.995-.002.61-.01.627-.31.627-.31 0-.304.023-.291-1.081l.01-.97.275-.012c.27-.012.274-.01.274.093v.105l.09-.084a.496.496 0 0 1 .193-.107c.057-.012.12-.03.143-.038.11-.042.456.036.582.131m3.629-.043c.665.344.755 1.315.166 1.8-.083.069-.183.125-.221.125-.038 0-.081.018-.095.04-.03.05-.616.055-.646.006-.012-.02-.073-.046-.135-.06-.732-.151-.795-1.479-.09-1.892.227-.133.78-.144 1.02-.02m2.688-.066c.4.093.48.313.465 1.281l-.013.731h-.568l-.02-.69c-.024-.795-.05-.873-.287-.873-.296 0-.34.106-.363.886l-.02.677h-.569l-.01-1.007-.012-1.007.273.012c.253.011.276.02.302.114.015.056.03.083.032.06.015-.152.47-.259.79-.184m2.609.086c.26.16.4.426.444.84l.027.254h-1.267v.12c0 .308.443.416.593.144.067-.123.625-.101.625.024 0 .565-1.139.812-1.603.348-.034-.034-.062-.082-.062-.106 0-.023-.014-.043-.032-.043-.137 0-.219-.77-.113-1.066.2-.559.898-.818 1.388-.515m-17.13.941l-.011 1.026-.192.012c-.37.024-.356.063-.356-1.07v-.993h.569l-.01 1.025m18.718-.974c.021.028.12.301.218.608.199.617.203.623.276.407a16.38 16.38 0 0 0 .235-.68l.12-.366.257-.012c.363-.017.37-.011.288.222-.09.25-.123.34-.164.44a6.098 6.098 0 0 0-.106.305 1.42 1.42 0 0 1-.105.261.172.172 0 0 0-.033.096c0 .031-.029.123-.065.205-.09.207-.12.282-.197.514-.209.618-.337.73-.834.73h-.345l-.012-.233-.013-.233h.168c.213 0 .3-.048.364-.202.051-.124.05-.136-.08-.468a51.634 51.634 0 0 1-.203-.528 6.41 6.41 0 0 0-.097-.235.803.803 0 0 1-.066-.23c0-.042-.014-.083-.03-.09-.04-.018-.174-.398-.173-.491 0-.089.531-.107.597-.02m-23.928.462c-.239.12-.346.536-.207.804.159.306.583.316.733.017.23-.46-.129-1.02-.526-.82m2.673.03c-.238.205-.156.89.119.995.31.118.457-.056.457-.544 0-.52-.259-.723-.576-.45m5.477-.004c-.189.2-.127.271.237.271.372 0 .419-.057.21-.256-.144-.139-.325-.145-.447-.015m8.258-.026c-.315.17-.38.685-.115.93.301.28.662.049.662-.424 0-.442-.245-.669-.547-.506m5.224.026c-.19.201-.127.271.241.271.284 0 .326-.009.305-.064a.37.37 0 0 1-.025-.1c0-.182-.377-.26-.52-.107"/>
  </g>
</svg>
